<?xml version="1.0" ?>
<!-- Uploaded to: SVG Repo, www.svgrepo.com, Generator: SVG Repo Mixer Tools -->
<svg width="800px" height="800px" viewBox="0 0 64 64" xmlns="http://www.w3.org/2000/svg">
<defs>
<style>.cls-1{fill:#9dcbf4;}.cls-2{fill:#389ad6;}.cls-3{fill:none;stroke:#2a5081;stroke-linecap:round;stroke-linejoin:round;stroke-width:2px;}.cls-4{fill:#2a5081;}</style>
</defs>
<title/>
<g data-name="Layer 6" id="Layer_6">
<path class="cls-1" d="M34.62,45.11c-2.18,7-12.13,6.43-17.54,5.69h0a21.18,21.18,0,0,1-2.3-.7.37.37,0,0,1-.14-.07,1.35,1.35,0,0,1-.26-.15l-.06,0c-1.11-.79-1.62-2.58-1.67-8.1q0-1.12,0-2.46c0-1.54.06-3.29.12-5.3.13-4,0-7.29-.12-10-.31-6.89-.58-10,3.38-10.92l.12,0,.63-.11h.11a25.14,25.14,0,0,1,4.81,0c1,.07,2,.16,3.23.29a50.72,50.72,0,0,0,0,8.16c.11,1.51.29,3.17.58,4.9.16.92.34,1.86.56,2.81a1.92,1.92,0,0,0-.91,1.63v8a1.93,1.93,0,0,0,1.93,1.93h3.74l.12.18A24,24,0,0,0,34.62,45.11Z"/>
<path class="cls-2" d="M35.22,42.8a9.41,9.41,0,0,1-.41,2.31c-2.18,7-12.13,6.43-17.54,5.69h0a6.71,6.71,0,0,1-2.3-.7.37.37,0,0,1-.14-.07,1.35,1.35,0,0,1-.26-.15l-.06,0c-2.91-1.94-2.35-6.26-1.67-10.56.84-5.34,4.52-1.8,7-10,1.38-4.63,3.63-6.89,5.33-8a6.4,6.4,0,0,1,2.28-1c2.75,0,.94,2.16-.13,3.25a4.41,4.41,0,0,0-1,1.51.57.57,0,0,1-.05.14,4.49,4.49,0,0,1-.51,1,4.15,4.15,0,0,1-2.2,1.69c-2.38.7-1.47,3.4-1.19,7.87a4.8,4.8,0,0,0,5,4.84,5.19,5.19,0,0,0,.63,0c1.27,0,2.34.1,3.23.18C37.11,41.36,35.22,42.8,35.22,42.8Z"/>
<path class="cls-3" d="M50.47,17.51V46.59a4.64,4.64,0,0,1-4.62,4.63H17.26a4.64,4.64,0,0,1-4.62-4.62V17.51a4.64,4.64,0,0,1,4.62-4.62H45.85"/>
<circle class="cls-4" cx="50.52" cy="14.18" r="1"/>
<path class="cls-3" d="M39.28,30.31v8a1.93,1.93,0,0,1-1.93,1.93H26.68a1.93,1.93,0,0,1-1.93-1.93v-8a1.92,1.92,0,0,1,.91-1.63,1.85,1.85,0,0,1,1-.3H37.35A1.94,1.94,0,0,1,39.28,30.31Z"/>
<path class="cls-3" d="M25.36,25.44a7.09,7.09,0,0,1,13.65,0"/>
<line class="cls-3" x1="28.94" x2="28.94" y1="40.27" y2="44.61"/>
<line class="cls-3" x1="34.33" x2="34.33" y1="40.27" y2="44.61"/>
<line class="cls-3" x1="21.71" x2="21.71" y1="28.38" y2="36.56"/>
<line class="cls-3" x1="42.29" x2="42.29" y1="28.38" y2="36.56"/>
<line class="cls-3" x1="39.01" x2="25.36" y1="25.44" y2="25.44"/>
<line class="cls-3" x1="28.63" x2="26.8" y1="21.23" y2="19.39"/>
<line class="cls-3" x1="36.03" x2="37.86" y1="21.23" y2="19.39"/>
</g>
</svg>